<?xml version="1.0" encoding="UTF-8" standalone="no"?>
<!-- Created with Inkscape (http://www.inkscape.org/) -->

<svg
   width="287.47076mm"
   height="66.424881mm"
   viewBox="0 0 287.47076 66.424881"
   version="1.1"
   id="svg1"
   xml:space="preserve"
   inkscape:version="1.4.3 (0d15f75, 2025-12-25)"
   sodipodi:docname="adlermind_logo.svg"
   xmlns:inkscape="http://www.inkscape.org/namespaces/inkscape"
   xmlns:sodipodi="http://sodipodi.sourceforge.net/DTD/sodipodi-0.dtd"
   xmlns="http://www.w3.org/2000/svg"
   xmlns:svg="http://www.w3.org/2000/svg"><sodipodi:namedview
     id="namedview1"
     pagecolor="#ffffff"
     bordercolor="#000000"
     borderopacity="0.25"
     inkscape:showpageshadow="2"
     inkscape:pageopacity="0.0"
     inkscape:pagecheckerboard="0"
     inkscape:deskcolor="#d1d1d1"
     inkscape:document-units="mm"
     inkscape:zoom="0.69753788"
     inkscape:cx="460.90687"
     inkscape:cy="237.2631"
     inkscape:window-width="1920"
     inkscape:window-height="1001"
     inkscape:window-x="-9"
     inkscape:window-y="-9"
     inkscape:window-maximized="1"
     inkscape:current-layer="layer1" /><defs
     id="defs1" /><g
     inkscape:label="Layer 1"
     inkscape:groupmode="layer"
     id="layer1"
     transform="translate(38.093672,-85.710113)"><g
       id="g51"
       transform="translate(4.5517241,-84.586207)"><path
         style="fill:#6b6b6b;fill-opacity:1"
         d="m 34.529748,204.24231 c -12.385767,-0.0656 -13.171419,-0.0976 -13.036624,-0.53038 0.732247,-2.35103 1.292415,-13.97616 1.169619,-24.27304 l -0.08835,-7.40833 1.959174,-0.0786 1.959174,-0.0786 -0.190077,14.12549 -0.190078,14.12549 6.829861,0.17747 c 16.832427,0.43739 18.375523,0.51005 18.748291,0.88282 0.846171,0.84617 -1.17224,2.85267 -3.054887,3.03686 -0.509323,0.0498 -6.857071,0.0592 -14.106105,0.0208 z"
         id="path51" /><path
         style="fill:#6b6b6b;fill-opacity:1"
         d="m 216.58013,204.54187 c -0.43399,-0.12997 -0.46302,-1.0914 -0.46302,-15.3328 v -15.19412 l 0.85989,9.9e-4 c 0.47295,5.4e-4 1.26037,0.24514 1.74983,0.54354 0.86718,0.52869 0.93819,0.53131 2.77813,0.10272 1.0385,-0.24191 3.52678,-0.50321 5.52951,-0.58067 7.3479,-0.28418 12.23797,1.06747 15.30844,4.23138 1.46518,1.50977 2.03894,2.74369 2.36464,5.08536 0.76457,5.49711 -2.16045,10.06535 -9.70942,15.16398 -4.58343,3.09568 -11.73799,5.8452 -15.65796,6.01739 -1.26336,0.0555 -2.50538,0.0385 -2.76004,-0.0378 z m 7.31963,-3.9372 c 7.95993,-2.3067 16.21284,-9.08955 17.3743,-14.27948 0.85235,-3.80871 -2.41543,-7.32233 -7.88864,-8.48214 -2.45488,-0.5202 -7.80855,-0.49921 -10.20462,0.04 -3.15896,0.71091 -2.83036,-0.69951 -2.83036,12.14846 V 201.267 h 0.63186 c 0.34752,0 1.66038,-0.29805 2.91746,-0.66234 z"
         id="path50" /><path
         style="fill:#6b6b6b;fill-opacity:1"
         d="m -10.432376,204.52421 c -0.434192,-0.11347 -0.463021,-1.06701 -0.463021,-15.31514 v -15.19412 h 0.890361 c 0.5133819,0 1.1998579,0.24345 1.6213419,0.57499 0.651745,0.51266 0.849247,0.54336 1.821996,0.28319 3.9280748,-1.0506 11.5358711,-1.0977 15.3285337,-0.0949 4.1976374,1.10988 7.5189354,3.71299 8.4616484,6.63193 0.677059,2.09639 0.60089,5.5717 -0.162798,7.42785 -1.191941,2.89702 -3.635615,5.66093 -7.7204585,8.7322 -5.8976367,4.43426 -15.9263446,7.96046 -19.7776035,6.95402 z m 6.8999851,-3.79159 c 6.7279474,-1.86439 14.6683829,-7.59609 16.9262859,-12.218 2.447821,-5.01067 -0.39231,-9.26764 -7.1368182,-10.69712 -2.695376,-0.57128 -9.2165085,-0.37692 -11.4639329,0.34168 l -1.587499,0.5076 -0.06899,11.30012 -0.06899,11.30013 h 0.735762 c 0.40467,0 1.603549,-0.24047 2.6641753,-0.53439 z"
         id="path49" /><path
         style="fill:#6b6b6b;fill-opacity:1"
         d="m 178.74808,204.55701 c -0.39834,-0.21613 -0.81506,-0.71738 -0.92605,-1.11388 -0.26167,-0.9348 -0.23391,-18.24207 0.0362,-22.57786 l 0.20785,-3.33611 0.91053,-0.43421 c 1.19955,-0.57202 1.87116,-0.54841 2.20618,0.0776 0.41622,0.77771 0.37451,27.06303 -0.0436,27.48115 -0.42711,0.42711 -1.5062,0.38349 -2.39111,-0.0967 z"
         id="path48" /><path
         style="fill:#8fbfb8;fill-opacity:1"
         d="m 171.7467,204.45308 c -0.5814,-0.35451 -0.92751,-0.83057 -1.10533,-1.52037 -0.2033,-0.7886 -1.50288,-10.92666 -2.57921,-20.12039 -0.15315,-1.30822 -0.72075,-1.49349 -1.62118,-0.52917 -0.91405,0.97892 -3.77042,5.81047 -6.79886,11.50031 -1.84758,3.47123 -3.0275,5.40606 -3.36141,5.51204 -0.74373,0.23605 -1.62468,-0.44901 -2.27771,-1.77123 -0.31294,-0.63363 -2.55285,-5.43831 -4.97758,-10.67706 -2.42473,-5.23875 -4.49745,-9.62203 -4.60605,-9.74062 -0.73961,-0.80764 -2.51312,14.888 -2.41823,21.40147 0.046,3.15908 0.002,3.52015 -0.50686,4.16719 -0.48836,0.62085 -0.74457,0.70842 -2.07262,0.70842 -1.78102,0 -2.15038,-0.28202 -2.15038,-1.64186 0,-0.95654 2.6395,-22.31602 3.18906,-25.80665 0.34739,-2.2065 0.6886,-2.87506 1.71623,-3.3627 1.35707,-0.64397 2.05185,-0.5083 3.37888,0.6598 2.02543,1.78285 3.40911,4.08645 7.05178,11.74009 2.16849,4.55623 3.3388,6.46062 3.72678,6.06443 0.11893,-0.12145 2.2524,-3.79269 4.74103,-8.15832 2.48863,-4.36562 4.77202,-8.14586 5.0742,-8.40052 0.74046,-0.62403 2.2102,-0.59569 2.86106,0.0552 1.89362,1.89362 2.64851,5.23071 4.55123,20.11931 1.17434,9.18902 1.17002,9.10639 0.50997,9.76644 -0.68681,0.68681 -1.24113,0.69497 -2.3248,0.0342 z"
         id="path47" /><path
         style="fill:#6b6b6b;fill-opacity:1"
         d="m 54.107952,204.78349 c -0.07078,-0.11506 -0.06297,-7.05529 0.01735,-15.42274 l 0.146037,-15.21354 9.551526,0.0792 c 5.253339,0.0436 10.087307,0.16487 10.742151,0.26958 l 1.190625,0.19037 0.07947,1.36958 c 0.07928,1.36627 0.07736,1.3699 -0.79375,1.50285 -0.480271,0.0733 -4.087908,0.19613 -8.01697,0.27296 -3.929062,0.0768 -7.580448,0.21595 -8.114191,0.30918 -0.954192,0.16666 -0.975235,0.19703 -1.25677,1.81372 -0.313063,1.79774 -0.388413,7.77121 -0.115255,9.137 l 0.171076,0.85538 2.540903,-0.18187 c 1.397497,-0.10002 4.664624,-0.47006 7.260283,-0.8223 2.595659,-0.35225 5.601987,-0.64045 6.680729,-0.64045 h 1.96135 v 1.4214 1.42139 l -0.992188,0.15255 c -0.545703,0.0839 -4.670018,0.59711 -9.165144,1.14046 l -8.172957,0.9879 0.183857,3.71451 c 0.101121,2.04297 0.22284,3.75348 0.270488,3.80113 0.128103,0.12811 9.975127,-0.45505 12.584277,-0.74525 1.236927,-0.13758 3.945599,-0.32868 6.019271,-0.42466 l 3.770312,-0.17452 v 0.69334 c 0,0.39552 -0.346402,1.08788 -0.806444,1.61183 -0.647929,0.73796 -0.998972,0.91839 -1.785937,0.91798 -0.538721,-2.8e-4 -4.789493,0.35697 -9.44616,0.79389 -4.656667,0.43692 -9.59776,0.87133 -10.980208,0.96536 -1.382448,0.094 -2.711881,0.22541 -2.954296,0.29196 -0.242415,0.0666 -0.498662,0.0269 -0.569438,-0.0882 z"
         id="path46" /><path
         style="fill:#6b6b6b;fill-opacity:1"
         d="m 185.15943,204.83719 c -0.26264,-0.31647 -0.26796,-1.33863 -0.0258,-4.96094 0.54867,-8.20799 0.83472,-16.099 0.80043,-22.08034 l -0.0337,-5.87633 0.75474,-0.66517 c 1.85735,-1.63692 2.263,-1.30951 7.26235,5.86139 2.45537,3.52189 6.92959,9.68153 11.62509,16.00418 0.94107,1.2672 1.77795,2.30899 1.85972,2.31511 0.0818,0.006 0.29262,-4.18584 0.46855,-9.31545 0.46297,-13.49814 0.51592,-14.11244 1.29646,-15.04006 0.8027,-0.95396 2.11466,-1.05076 2.87396,-0.21206 0.47808,0.52808 0.50824,1.19879 0.5859,13.03073 0.0791,12.05276 -0.13989,17.83914 -0.7602,20.08569 -0.26704,0.96715 -0.29794,0.98672 -1.51693,0.96088 -2.11764,-0.0449 -2.29049,-0.18159 -4.49463,-3.55499 -1.14439,-1.75147 -4.32822,-6.21631 -7.07518,-9.92187 -2.74696,-3.70556 -5.85308,-7.95753 -6.90248,-9.44881 l -1.90801,-2.71143 -0.16218,0.99164 c -0.39058,2.38811 -0.66633,8.07233 -0.67189,13.85015 -0.003,3.43416 -0.0835,7.16111 -0.17829,8.28212 -0.15953,1.88721 -0.22715,2.06655 -0.9129,2.42117 -0.96352,0.49825 -2.46526,0.49012 -2.88499,-0.0156 z"
         id="path45" /><path
         style="fill:#6b6b6b;fill-opacity:1"
         d="m 109.62232,205.27105 c -0.58209,-0.26525 -4.17724,-2.57546 -7.98923,-5.13379 -3.811981,-2.55833 -8.276824,-5.32538 -9.92187,-6.149 l -2.990993,-1.4975 -0.06894,5.64491 c -0.06019,4.92874 -0.125349,5.68686 -0.51359,5.97563 -0.610016,0.45373 -1.95712,0.4153 -2.658303,-0.0758 -1.107326,-0.7756 -1.262648,-2.097 -1.180666,-10.04448 0.04203,-4.07458 -0.05907,-9.94575 -0.224677,-13.04704 -0.281198,-5.26602 -0.270199,-5.67286 0.166408,-6.15531 0.593837,-0.65618 1.346288,-0.45806 2.236408,0.58885 l 0.667059,0.78455 1.255668,-0.7018 c 1.795246,-1.00338 3.627963,-1.43926 6.802922,-1.61792 3.556974,-0.20017 6.879194,0.21729 9.998014,1.25633 4.87955,1.62562 5.90013,4.05624 2.75055,6.55076 -1.67039,1.32297 -4.35917,2.54927 -9.951078,4.53848 -5.992095,2.13157 -7.82457,2.87903 -7.82457,3.19162 0,0.11998 1.041797,0.77856 2.315104,1.46352 10.879174,5.85228 20.263874,11.33004 21.086994,12.30827 1.06698,1.26802 0.82221,1.9838 -0.80766,2.36189 -1.46674,0.34024 -1.95138,0.30295 -3.14756,-0.24214 z M 91.630644,185.15457 c 4.604978,-1.22574 11.272116,-4.12595 12.829676,-5.58093 2.26748,-2.11813 -0.57219,-2.78774 -9.040518,-2.13182 -3.756903,0.291 -6.063729,0.90009 -7.109804,1.87727 -0.711178,0.66434 -0.780396,0.88338 -0.780396,2.46958 0,0.98216 0.185445,2.20404 0.425603,2.80426 0.503675,1.25881 0.854713,1.31245 3.675439,0.56164 z"
         id="path44" /><path
         style="fill:#e8929a;fill-opacity:1"
         d="m -17.97386,203.0685 c -0.706277,-1.50013 -2.223505,-4.72181 -3.371619,-7.15928 -1.148114,-2.43747 -2.213325,-4.42654 -2.367136,-4.42014 -0.153811,0.006 -3.072874,0.6938 -6.486807,1.52758 l -6.207151,1.51596 -0.834222,2.97843 c -1.010149,3.60655 -2.575194,6.93098 -3.262906,6.93098 -1.105291,0 -2.141695,-0.57456 -2.141695,-1.1873 0,-0.3335 1.082548,-3.50678 2.405662,-7.05172 3.647226,-9.7718 7.849363,-21.42929 8.045747,-22.32035 0.332625,-1.50924 0.699475,-2.18151 1.352881,-2.47922 1.090476,-0.49686 1.573724,-0.35151 2.952332,0.88798 1.554454,1.39759 2.977435,3.99144 4.429111,8.07353 1.11137,3.12515 1.758589,4.51733 2.658581,5.71864 0.605344,0.80801 0.668581,0.82632 3.290368,0.95257 1.470239,0.0708 2.79374,0.2493 2.941113,0.39667 0.432128,0.43213 0.353929,1.92204 -0.126072,2.40204 -0.310208,0.31021 -1.024605,0.47154 -2.394249,0.54071 l -1.952118,0.0986 1.123235,3.34592 c 1.107341,3.29857 2.43914,6.35544 3.623711,8.31748 0.717652,1.18867 0.617206,1.42753 -1.151164,2.73739 l -1.243462,0.92106 z m -13.348598,-12.8952 c 2.663279,-0.69173 6.404145,-2.18792 6.404145,-2.56138 0,-0.60763 -1.372456,-5.03092 -2.093849,-6.74827 -1.247496,-2.9698 -2.933234,-4.68974 -2.933234,-2.99275 0,1.30871 -1.065192,4.07975 -4.391301,11.42374 l -0.62911,1.38906 0.85656,-0.005 c 0.471107,-0.002 1.725162,-0.23014 2.786789,-0.50587 z"
         id="path43" /><path
         style="fill:#a1a1a1;fill-opacity:0.988235"
         d="m 36.200436,215.28995 v -0.79375 h 64.822914 64.82293 v 0.79375 0.79375 H 101.02335 36.200436 Z"
         id="path42" /><path
         style="fill:#1a2e45;fill-opacity:1"
         d="m 150.50044,226.00557 c 0,-0.32963 0.51252,-0.39687 3.02514,-0.39687 h 3.02513 l 0.0837,-0.72761 c 0.0698,-0.60628 0.2271,-0.74142 0.94362,-0.81051 0.80104,-0.0772 0.85989,-0.0274 0.85989,0.7276 v 0.81052 h 3.04271 c 2.52824,0 3.04271,0.0671 3.04271,0.39687 0,0.3428 -0.95544,0.39688 -7.01146,0.39688 -6.05602,0 -7.01146,-0.0541 -7.01146,-0.39688 z"
         id="path41" /><path
         style="fill:#1a2e45;fill-opacity:1"
         d="m 30.115019,226.00557 c 0,-0.32858 0.497816,-0.39687 2.892843,-0.39687 h 2.892842 l 0.08372,-0.72761 c 0.06976,-0.60628 0.227103,-0.74142 0.943616,-0.81051 0.801047,-0.0772 0.859896,-0.0274 0.859896,0.7276 v 0.81052 h 2.910417 c 2.410648,0 2.910416,0.0682 2.910416,0.39687 0,0.34241 -0.926041,0.39688 -6.746875,0.39688 -5.820833,0 -6.746875,-0.0545 -6.746875,-0.39688 z"
         id="path40" /><path
         style="fill:#1a2e45;fill-opacity:1"
         d="m 154.14049,231.07847 c -2.13293,-0.66864 -2.69921,-2.06286 -1.2554,-3.09094 1.51828,-1.08111 6.44185,-1.3035 8.64113,-0.39029 0.46162,0.19168 1.04086,0.65611 1.2872,1.03207 0.40891,0.62407 0.41184,0.73856 0.0337,1.31567 -0.63042,0.96215 -2.53873,1.48775 -5.31621,1.46422 -1.32014,-0.0112 -2.84583,-0.16001 -3.39042,-0.33073 z m 6.15809,-0.87386 c 1.30499,-0.52215 1.35669,-1.33224 0.12374,-1.93863 -1.06623,-0.52439 -4.75676,-0.5237 -5.82084,10e-4 -2.9062,1.4333 2.4255,3.24658 5.6971,1.93754 z"
         id="path39" /><path
         style="fill:#1a2e45;fill-opacity:1"
         d="m 70.331686,230.90036 c 0,-0.51009 0.176388,-0.52916 4.894791,-0.52916 h 4.894792 v -0.66146 -0.66146 h -3.571875 -3.571875 v -2.11667 -2.11666 h 7.9375 c 6.879166,0 7.9375,0.0529 7.9375,0.39687 0,0.3428 -0.95544,0.39688 -7.011459,0.39688 h -7.011458 v 1.1863 1.18631 l 7.077604,0.0705 c 6.083496,0.0606 7.077604,0.12621 7.077604,0.46734 0,0.32997 -0.61333,0.40929 -3.63802,0.47049 l -3.638021,0.0736 v 0.654 0.65399 h 4.894791 c 4.718403,0 4.894792,0.0191 4.894792,0.52916 0,0.52035 -0.176389,0.52917 -10.583333,0.52917 -10.406945,0 -10.583333,-0.009 -10.583333,-0.52917 z"
         id="path38" /><path
         style="fill:#1a2e45;fill-opacity:1"
         d="m 167.09314,231.52987 c -0.10369,-0.10369 -0.18853,-1.77603 -0.18853,-3.71631 v -3.52778 h 0.92604 0.92604 v 1.5875 1.5875 h 1.71979 c 1.54341,0 1.7198,0.0543 1.7198,0.52917 0,0.47447 -0.17639,0.52916 -1.70659,0.52916 h -1.70659 l -0.0794,1.52136 c -0.0734,1.40717 -0.12974,1.52723 -0.75071,1.59965 -0.36925,0.0431 -0.7562,-0.007 -0.8599,-0.11025 z"
         id="path37" /><path
         style="fill:#1a2e45;fill-opacity:1"
         d="m 111.88032,231.30814 c -0.26536,-0.31974 -0.19147,-0.41307 0.43063,-0.54388 4.69119,-0.98645 7.76241,-2.51215 7.76241,-3.85616 0,-0.47534 -0.23792,-0.50565 -3.96875,-0.50565 -3.79236,0 -3.96875,-0.0235 -3.96875,-0.52917 0,-0.51863 0.17639,-0.52917 8.86354,-0.52917 8.68715,0 8.86354,0.0105 8.86354,0.52917 0,0.50565 -0.17639,0.52917 -3.96875,0.52917 -3.40327,0 -3.96875,0.0583 -3.96875,0.4089 0,1.36437 5.00272,3.82443 7.77726,3.82443 0.74514,0 0.88825,0.29935 0.35478,0.74209 -0.64368,0.53421 -6.00189,-0.93642 -7.67925,-2.10767 -0.46731,-0.32632 -0.93269,-0.71498 -1.03416,-0.8637 -0.11401,-0.16708 -0.41935,-0.0498 -0.79915,0.30703 -0.88317,0.8297 -3.73499,2.05314 -5.94775,2.5516 -2.31777,0.52212 -2.3192,0.52215 -2.71685,0.043 z"
         id="path36" /><path
         style="fill:#1a2e45;fill-opacity:1"
         d="m 47.577519,231.16495 c 0,-0.48507 -0.176389,-0.52917 -2.116666,-0.52917 -1.940278,0 -2.116667,-0.0441 -2.116667,-0.52917 0,-0.48506 0.176389,-0.52916 2.116667,-0.52916 2.081388,0 2.116666,-0.011 2.116666,-0.66146 0,-0.65043 -0.03528,-0.66146 -2.116666,-0.66146 -1.940278,0 -2.116667,-0.0441 -2.116667,-0.52917 0,-0.48506 0.176389,-0.52916 2.116667,-0.52916 h 2.116666 v -1.45521 -1.45521 h 0.926042 0.926042 v 3.70417 3.70416 h -0.926042 c -0.749653,0 -0.926042,-0.10079 -0.926042,-0.52916 z"
         id="path35" /><path
         style="fill:#1a2e45;fill-opacity:1"
         d="m 34.699296,231.43375 c -3.245938,-0.68873 -3.999834,-2.647 -1.484571,-3.85622 0.766072,-0.3683 1.622974,-0.48001 3.647169,-0.47548 2.979385,0.007 4.306318,0.4122 5.046857,1.5424 0.438349,0.66901 0.435338,0.72899 -0.07084,1.41116 -0.290755,0.39186 -0.973311,0.86135 -1.516792,1.04332 -1.335585,0.44718 -4.268894,0.62188 -5.621826,0.33482 z m 4.81693,-1.18134 c 1.125564,-0.47029 1.215408,-1.26134 0.217517,-1.91519 -1.40909,-0.92327 -5.871531,-0.47219 -6.296985,0.63653 -0.183143,0.47726 0.275665,1.10261 1.034701,1.41027 0.893971,0.36237 4.060214,0.27976 5.044767,-0.13161 z"
         id="path34" /><path
         style="fill:#1a2e45;fill-opacity:1"
         d="m 110.54836,234.73682 c 0,-0.33808 0.70556,-0.39687 4.7625,-0.39687 h 4.7625 v -1.5875 -1.5875 h 0.92604 0.92604 v 1.5875 1.5875 h 4.89479 c 4.17454,0 4.8948,0.0584 4.8948,0.39687 0,0.34617 -1.35232,0.39688 -10.58334,0.39688 -9.23102,0 -10.58333,-0.0507 -10.58333,-0.39688 z"
         id="path33" /><path
         style="fill:#1a2e45;fill-opacity:1"
         d="m 154.05322,236.36997 c -0.0759,-0.19786 -0.10269,-1.24158 -0.0595,-2.31937 l 0.0786,-1.95961 0.85989,-0.0829 c 0.80105,-0.0772 0.8599,-0.0274 0.8599,0.7276 v 0.81052 h 5.55625 5.55625 v -0.81052 c 0,-0.75504 0.0589,-0.80483 0.85989,-0.7276 l 0.8599,0.0829 v 2.24896 2.24896 l -7.21656,0.0704 c -5.88821,0.0574 -7.24198,0.004 -7.35462,-0.28935 z m 12.85139,-1.36856 v -0.66146 h -5.55625 -5.55625 v 0.66146 0.66146 h 5.55625 5.55625 z"
         id="path32" /><path
         style="fill:#1a2e45;fill-opacity:1"
         d="m 75.420324,236.35308 c -0.766509,-0.19356 -1.629712,-0.56556 -1.918229,-0.82666 -0.712121,-0.64446 -0.66656,-1.61041 0.09964,-2.11244 1.617556,-1.05986 7.993212,-1.54854 11.72497,-0.89868 2.052917,0.3575 3.393524,1.18701 3.393524,2.09977 0,0.51703 -0.272118,0.78619 -1.322917,1.30856 -1.238426,0.61565 -1.618631,0.6616 -5.953125,0.71951 -3.168028,0.0423 -5.070311,-0.0493 -6.023861,-0.29006 z m 10.65407,-0.97504 c 1.167486,-0.56446 1.053434,-1.34174 -0.264584,-1.80318 -1.456856,-0.51005 -8.329834,-0.51071 -9.789583,-9.4e-4 -1.428326,0.4988 -1.600896,1.38918 -0.345791,1.78413 1.53731,0.48375 2.124359,0.53013 5.902041,0.46633 2.584134,-0.0437 3.944174,-0.17861 4.497917,-0.44634 z"
         id="path31" /><path
         style="fill:#1a2e45;fill-opacity:1"
         d="m 34.404198,234.40609 0.07645,-2.3151 h 0.79375 c 0.669225,0 0.806885,0.11415 0.87747,0.7276 l 0.08372,0.72761 h 5.653393 5.653393 l 0.08372,-0.72761 c 0.07059,-0.61345 0.208245,-0.7276 0.87747,-0.7276 h 0.79375 l 0.07645,2.3151 0.07645,2.31511 H 41.888987 34.32776 Z m 13.173321,0.59532 v -0.66146 h -5.688541 -5.688542 v 0.66146 0.66146 h 5.688542 5.688541 z"
         id="path1" /></g></g></svg>
